<svg width="185" height="67" viewBox="0 0 185 67" fill="none" xmlns="http://www.w3.org/2000/svg">
<path d="M70.4676 20.6341H88.7081C89.0971 20.6348 89.47 20.79 89.745 21.0659C90.0201 21.3418 90.175 21.7157 90.1757 22.1058V23.3688C90.175 23.7589 90.0201 24.1328 89.745 24.4087C89.47 24.6846 89.0971 24.8398 88.7081 24.8405H75.2528C75.06 24.8402 74.869 24.878 74.6908 24.9519C74.5125 25.0257 74.3506 25.1341 74.2143 25.2708C74.0779 25.4076 73.9698 25.5699 73.8962 25.7486C73.8226 25.9274 73.7849 26.1189 73.7852 26.3123C73.7852 26.7026 73.9398 27.0769 74.215 27.3529C74.4903 27.6289 74.8636 27.784 75.2528 27.784H85.4295C85.8187 27.784 86.192 27.9391 86.4672 28.2151C86.7424 28.4911 86.897 28.8654 86.897 29.2557V30.2995C86.8964 30.6896 86.7415 31.0636 86.4664 31.3394C86.1914 31.6153 85.8185 31.7706 85.4295 31.7712H75.2528C75.06 31.7709 74.869 31.8087 74.6908 31.8826C74.5125 31.9564 74.3506 32.0648 74.2143 32.2015C74.0779 32.3383 73.9698 32.5006 73.8962 32.6794C73.8226 32.8581 73.7849 33.0496 73.7852 33.243V36.4813C73.7852 36.8716 73.6306 37.246 73.3554 37.522C73.0801 37.798 72.7069 37.9531 72.3176 37.9531H70.4676C70.0783 37.9531 69.7051 37.798 69.4298 37.522C69.1546 37.246 69 36.8716 69 36.4813V22.1058C69.0007 21.7157 69.1555 21.3418 69.4306 21.0659C69.7057 20.79 70.0786 20.6348 70.4676 20.6341Z" fill="white"/>
<path d="M92.6709 20.6341H94.547C94.936 20.6348 95.3089 20.79 95.584 21.0659C95.8591 21.3418 96.0139 21.7157 96.0146 22.1058V36.4761C96.0146 36.8664 95.86 37.2408 95.5848 37.5168C95.3095 37.7928 94.9362 37.9478 94.547 37.9478H92.6709C92.2817 37.9478 91.9084 37.7928 91.6332 37.5168C91.358 37.2408 91.2034 36.8664 91.2034 36.4761V22.1058C91.2041 21.7157 91.3589 21.3418 91.634 21.0659C91.909 20.79 92.2819 20.6348 92.6709 20.6341Z" fill="white"/>
<path d="M101.292 24.8405H99.0486C98.6594 24.8405 98.2861 24.6855 98.0109 24.4095C97.7357 24.1335 97.5811 23.7591 97.5811 23.3688V22.1058C97.5811 21.7155 97.7357 21.3411 98.0109 21.0651C98.2861 20.7891 98.6594 20.6341 99.0486 20.6341H111.255C111.644 20.6341 112.017 20.7891 112.293 21.0651C112.568 21.3411 112.723 21.7155 112.723 22.1058V23.3688C112.723 23.7591 112.568 24.1335 112.293 24.4095C112.017 24.6855 111.644 24.8405 111.255 24.8405H109.012C108.819 24.8402 108.628 24.878 108.45 24.9519C108.272 25.0257 108.11 25.1341 107.973 25.2708C107.837 25.4076 107.729 25.5699 107.655 25.7486C107.582 25.9274 107.544 26.1189 107.544 26.3123V36.4761C107.544 36.8664 107.39 37.2408 107.115 37.5168C106.839 37.7928 106.466 37.9478 106.077 37.9478H104.227C103.838 37.9478 103.464 37.7928 103.189 37.5168C102.914 37.2408 102.759 36.8664 102.759 36.4761V26.3123C102.76 26.1189 102.722 25.9274 102.648 25.7486C102.575 25.5699 102.466 25.4076 102.33 25.2708C102.194 25.1341 102.032 25.0257 101.854 24.9519C101.675 24.878 101.484 24.8402 101.292 24.8405Z" fill="white"/>
<path d="M110.29 26.9803H118.21C118.359 26.981 118.501 27.0407 118.606 27.1463C118.711 27.2519 118.77 27.3949 118.77 27.5439V28.1441C118.77 28.2932 118.711 28.4361 118.606 28.5418C118.501 28.6474 118.359 28.7071 118.21 28.7078H112.254C112.106 28.7078 111.963 28.7669 111.858 28.8721C111.754 28.9773 111.695 29.12 111.695 29.2688V29.3549C111.695 29.5037 111.754 29.6464 111.858 29.7516C111.963 29.8568 112.106 29.9159 112.254 29.9159H117.084C117.232 29.9159 117.374 29.975 117.479 30.0803C117.584 30.1855 117.643 30.3282 117.643 30.477V30.9989C117.643 31.1477 117.584 31.2904 117.479 31.3956C117.374 31.5008 117.232 31.5599 117.084 31.5599H112.254C112.105 31.5606 111.963 31.6203 111.858 31.7259C111.753 31.8315 111.695 31.9745 111.695 32.1235V33.8171C111.695 33.8911 111.68 33.9644 111.652 34.0328C111.624 34.1012 111.582 34.1633 111.53 34.2156C111.478 34.268 111.416 34.3095 111.348 34.3378C111.279 34.3661 111.206 34.3807 111.133 34.3807H110.29C110.141 34.38 109.999 34.3203 109.894 34.2147C109.789 34.1091 109.73 33.9661 109.73 33.8171V27.5544C109.729 27.4797 109.742 27.4055 109.77 27.3361C109.797 27.2667 109.838 27.2034 109.89 27.15C109.942 27.0966 110.004 27.0541 110.073 27.0249C110.141 26.9958 110.215 26.9806 110.29 26.9803Z" fill="white"/>
<path d="M118.77 30.6779C118.77 28.6373 120.409 26.9803 122.597 26.9803C124.786 26.9803 126.404 28.6164 126.404 30.6779C126.404 32.7394 124.762 34.3729 122.577 34.3729C120.391 34.3729 118.77 32.7394 118.77 30.6779ZM124.398 30.6779C124.408 30.4309 124.368 30.1845 124.281 29.9533C124.194 29.722 124.062 29.5106 123.892 29.3315C123.722 29.1524 123.518 29.0093 123.292 28.9107C123.066 28.8121 122.823 28.7599 122.577 28.7573C121.505 28.7573 120.784 29.6315 120.784 30.6779C120.774 30.9247 120.814 31.171 120.901 31.4021C120.988 31.6332 121.12 31.8445 121.29 32.0234C121.46 32.2022 121.664 32.3451 121.89 32.4434C122.116 32.5418 122.359 32.5936 122.605 32.5958C123.68 32.6037 124.398 31.7217 124.398 30.6779Z" fill="white"/>
<path d="M127.424 27.8284C127.424 27.6793 127.483 27.5364 127.588 27.4307C127.693 27.3251 127.835 27.2654 127.984 27.2647H130.776C131.858 27.2647 132.597 27.5492 133.084 28.0267C133.298 28.2495 133.464 28.5142 133.572 28.8042C133.68 29.0942 133.727 29.4033 133.711 29.7124C133.725 30.0848 133.646 30.4548 133.479 30.7879C133.313 31.121 133.065 31.4064 132.758 31.6173C132.635 31.7011 132.55 31.8302 132.52 31.9766C132.491 32.1231 132.521 32.2752 132.602 32.4001L133.344 33.4883C133.402 33.5727 133.436 33.6714 133.442 33.7737C133.448 33.876 133.426 33.978 133.378 34.0687C133.33 34.1593 133.259 34.2351 133.171 34.2878C133.083 34.3405 132.983 34.3681 132.881 34.3677H131.978C131.884 34.3665 131.792 34.342 131.711 34.2965C131.629 34.2509 131.56 34.1857 131.509 34.1067L130.414 32.4549C130.364 32.3758 130.296 32.3105 130.214 32.2649C130.133 32.2193 130.041 32.1949 129.948 32.194C129.8 32.194 129.657 32.2531 129.552 32.3583C129.448 32.4635 129.389 32.6062 129.389 32.755V33.7858C129.388 33.9348 129.328 34.0775 129.223 34.1826C129.118 34.2878 128.975 34.3468 128.827 34.3468H127.984C127.835 34.3468 127.693 34.2877 127.588 34.1825C127.483 34.0773 127.424 33.9346 127.424 33.7858V27.8284ZM130.684 30.6779C131.353 30.6779 131.738 30.3517 131.738 29.8142C131.738 29.2766 131.332 28.9713 130.674 28.9713H129.948C129.8 28.9713 129.657 29.0304 129.552 29.1356C129.448 29.2409 129.389 29.3836 129.389 29.5324V30.1143C129.389 30.2633 129.447 30.4063 129.552 30.5119C129.657 30.6175 129.799 30.6772 129.948 30.6779H130.684Z" fill="white"/>
<path d="M143.828 27.5805L148.337 35.0148C148.512 35.3047 148.607 35.6362 148.613 35.9752C148.619 36.3142 148.534 36.6486 148.368 36.9441C148.203 37.2396 147.962 37.4856 147.67 37.6569C147.378 37.8283 147.046 37.9188 146.708 37.9191H145.777C145.439 37.9186 145.107 37.8283 144.815 37.6573C144.524 37.4863 144.283 37.2408 144.116 36.9458L142.05 33.2769C141.473 32.2096 140.989 32.2462 140.388 33.2769L138.111 36.9536C137.944 37.2471 137.703 37.4911 137.412 37.6611C137.121 37.8311 136.79 37.921 136.453 37.9217H135.628C135.29 37.9215 134.957 37.8308 134.665 37.659C134.373 37.4872 134.132 37.2405 133.966 36.9443C133.801 36.648 133.717 36.3129 133.723 35.9733C133.729 35.6338 133.826 35.302 134.002 35.0122L138.478 27.6457C138.661 27.3456 138.758 27.0007 138.759 26.6489V22.5781C138.759 22.0713 138.959 21.5852 139.316 21.2265C139.674 20.8679 140.158 20.6661 140.663 20.6654H141.644C142.15 20.6661 142.634 20.8679 142.991 21.2265C143.349 21.5852 143.549 22.0713 143.549 22.5781V26.6019C143.552 26.9474 143.648 27.2856 143.828 27.5805Z" fill="white"/>
<path d="M157.473 20C162.417 20 166.419 23.9925 166.419 29.3158C166.419 34.6391 162.464 38.5846 157.473 38.5846C152.529 38.5846 148.527 34.5921 148.527 29.2662C148.527 23.9403 152.485 20 157.473 20ZM157.473 33.7049C159.955 33.7049 162.118 31.9043 162.118 29.2688C162.118 26.6332 160.005 24.9084 157.473 24.9084C154.991 24.9084 152.828 26.7063 152.828 29.3184C152.828 31.9304 154.941 33.7049 157.473 33.7049Z" fill="white"/>
<path d="M167.395 30.3517V22.5781C167.395 22.0713 167.595 21.5852 167.952 21.2265C168.31 20.8679 168.794 20.6661 169.299 20.6654H170.34C170.846 20.6661 171.33 20.8679 171.687 21.2265C172.044 21.5852 172.245 22.0713 172.245 22.5781V30.2551C172.245 32.7446 173.499 33.9293 175.417 33.9293C177.335 33.9293 178.586 32.7941 178.586 30.3778V22.5781C178.586 22.0708 178.787 21.5843 179.145 21.2256C179.503 20.8669 179.988 20.6654 180.494 20.6654H181.534C181.785 20.6654 182.033 20.7149 182.264 20.811C182.496 20.9071 182.706 21.048 182.883 21.2256C183.06 21.4032 183.201 21.6141 183.297 21.8462C183.392 22.0782 183.442 22.3269 183.442 22.5781V30.2291C183.442 35.7976 180.27 38.2375 175.375 38.2375C170.481 38.2375 167.395 35.7507 167.395 30.3517Z" fill="white"/>
<path d="M69.6191 42.5353C69.6191 40.5234 70.7875 39.2943 72.4112 39.2943C72.733 39.2967 73.051 39.3656 73.3451 39.4967C73.6393 39.6278 73.9033 39.8183 74.1207 40.0563L73.6576 40.5625C73.5005 40.3845 73.3074 40.2421 73.0911 40.1449C72.8748 40.0477 72.6404 39.9979 72.4034 39.9989C71.2168 39.9989 70.4362 40.9618 70.4362 42.5144C70.4362 44.067 71.2168 45.0691 72.4034 45.0691C72.6726 45.0669 72.938 45.0041 73.1799 44.8853C73.4217 44.7666 73.6339 44.5948 73.8007 44.3828L74.256 44.8681C74.0254 45.1573 73.7316 45.3893 73.3972 45.5463C73.0629 45.7033 72.697 45.7811 72.3279 45.7736C70.7953 45.7736 69.6191 44.5733 69.6191 42.5353Z" fill="white"/>
<path d="M75.4324 43.9078V41.0374H76.213V43.8087C76.213 44.6776 76.5174 45.0952 77.2772 45.0952C77.7976 45.0952 78.1984 44.8473 78.711 44.2471V41.0374H79.4916V45.651H78.8619L78.7942 44.842H78.7552C78.2894 45.3848 77.7482 45.7658 77.0352 45.7658C75.9372 45.7736 75.4324 45.1291 75.4324 43.9078Z" fill="white"/>
<path d="M81.0762 45.0508L81.4379 44.5289C82.0193 44.9524 82.723 45.1733 83.4415 45.1578C84.2221 45.1578 84.5994 44.8342 84.5994 44.4428C84.5994 44.0514 84.4198 43.8426 83.1656 43.5843C81.9583 43.339 81.3598 42.9267 81.3598 42.2326C81.3598 41.4889 82.0155 40.9279 83.2801 40.9279C83.9445 40.9424 84.5909 41.147 85.1432 41.5176L84.7633 42.0238C84.3044 41.7062 83.7596 41.5369 83.2021 41.5385C82.4214 41.5385 82.1378 41.8516 82.1378 42.2039C82.1378 42.6057 82.5385 42.7754 83.4883 42.9867C85.0183 43.3207 85.3878 43.7017 85.3878 44.4167C85.3878 45.1317 84.6566 45.7971 83.3348 45.7971C82.5246 45.7794 81.7382 45.5195 81.0762 45.0508Z" fill="white"/>
<path d="M88.0574 43.8583V41.6689H86.7563V41.0766L88.0938 41.0296L88.1979 39.5422H88.8536V41.0296H91.1148V41.6689H88.8536V43.8687C88.8536 44.6985 89.1294 45.1265 90.0245 45.1265C90.4011 45.1254 90.7743 45.0546 91.1252 44.9177L91.297 45.497C90.8368 45.678 90.3471 45.7718 89.8528 45.7736C88.4893 45.7736 88.0574 45.0012 88.0574 43.8583Z" fill="white"/>
<path d="M92.3718 43.3546C92.3718 41.802 93.4361 40.9148 94.6512 40.9148C95.8664 40.9148 96.9333 41.802 96.9333 43.3546C96.9333 44.9073 95.869 45.7736 94.6512 45.7736C93.4335 45.7736 92.3718 44.889 92.3718 43.3546ZM96.124 43.3546C96.124 42.2874 95.5359 41.5724 94.6512 41.5724C93.7665 41.5724 93.1733 42.2874 93.1733 43.3546C93.1733 44.4219 93.7639 45.116 94.646 45.116C95.5281 45.116 96.124 44.4115 96.124 43.3546Z" fill="white"/>
<path d="M98.0522 41.0296H98.6793L98.7469 41.6402H98.7651C99.0019 41.2097 99.2855 40.9148 99.8216 40.9148C100.277 40.9148 100.561 41.1757 100.693 41.7159C100.953 41.2201 101.245 40.9148 101.778 40.9148C102.424 40.9148 102.804 41.421 102.804 42.3448V45.651H102.023V42.4022C102.023 41.8672 101.869 41.5906 101.529 41.5906C101.188 41.5906 101.034 41.8307 100.787 42.3056V45.651H100.064V42.4022C100.064 41.8672 99.9309 41.5906 99.59 41.5906C99.2491 41.5906 99.0566 41.8307 98.8302 42.3056V45.651H98.0496L98.0522 41.0296Z" fill="white"/>
<path d="M104.011 42.2195H108.096V42.8119H104.011V42.2195Z" fill="white"/>
<path d="M109.454 41.0296H110.087L110.152 41.6402H110.173C110.409 41.2097 110.693 40.9148 111.226 40.9148C111.682 40.9148 111.968 41.1757 112.101 41.7159C112.361 41.2201 112.652 40.9148 113.183 40.9148C113.828 40.9148 114.208 41.421 114.208 42.3448V45.651H113.428V42.4022C113.428 41.8672 113.277 41.5906 112.933 41.5906C112.59 41.5906 112.439 41.8307 112.192 42.3056V45.651H111.471V42.4022C111.471 41.8672 111.338 41.5906 110.995 41.5906C110.651 41.5906 110.474 41.8307 110.235 42.3056V45.651H109.454V41.0296Z" fill="white"/>
<path d="M115.364 44.4585C115.364 43.4147 116.331 42.9163 118.718 42.7258C118.689 42.0969 118.385 41.5619 117.492 41.5619C116.914 41.5974 116.355 41.7885 115.876 42.1152L115.561 41.5933C116.176 41.1866 116.889 40.9556 117.625 40.9252C118.887 40.9252 119.506 41.6794 119.506 42.8302V45.651H118.85L118.783 45.0221H118.754C118.244 45.4622 117.604 45.7234 116.933 45.7658C116.071 45.7736 115.364 45.2883 115.364 44.4585ZM118.718 44.4585V43.2581C116.74 43.4094 116.142 43.8009 116.142 44.4089C116.142 44.9308 116.618 45.1447 117.149 45.1447C117.679 45.1447 118.184 44.889 118.718 44.4506V44.4585Z" fill="white"/>
<path d="M120.872 43.3547C120.872 41.849 121.872 40.9148 122.954 40.9148C123.475 40.9213 123.974 41.1331 124.341 41.5045H124.359L124.32 40.6565V38.8664H125.101V45.651H124.455L124.398 45.0508H124.369C123.979 45.48 123.436 45.7394 122.858 45.7736C121.671 45.7736 120.872 44.8968 120.872 43.3547ZM124.33 44.4219V42.1152C124.174 41.9525 123.987 41.8226 123.78 41.7331C123.573 41.6435 123.351 41.596 123.126 41.5933C122.327 41.5933 121.682 42.2978 121.682 43.3547C121.682 44.4611 122.202 45.1186 123.04 45.1186C123.292 45.1034 123.539 45.0332 123.762 44.9129C123.985 44.7926 124.179 44.6251 124.33 44.4219Z" fill="white"/>
<path d="M126.649 43.3364C126.636 43.0199 126.688 42.7042 126.802 42.4086C126.915 42.1129 127.087 41.8436 127.308 41.6169C127.529 41.3903 127.793 41.2111 128.085 41.0904C128.377 40.9697 128.69 40.91 129.006 40.9148C130.336 40.9148 131.114 41.7811 131.114 43.0885C131.113 43.2475 131.101 43.4062 131.077 43.5634H127.174V42.9528H130.614L130.414 43.172C130.414 42.076 129.873 41.5333 129.027 41.5333C128.181 41.5333 127.432 42.183 127.432 43.3364C127.432 44.5367 128.213 45.1447 129.235 45.1447C129.738 45.1435 130.228 44.9907 130.643 44.7064L130.927 45.2283C130.401 45.5892 129.779 45.7821 129.142 45.7815C127.752 45.7736 126.649 44.8681 126.649 43.3364Z" fill="white"/>
<path d="M138.163 43.3547C138.163 41.802 139.342 40.9148 140.739 40.9148C141.05 40.9099 141.359 40.9672 141.647 41.0832C141.936 41.1992 142.198 41.3717 142.42 41.5907L142.032 42.0969C141.689 41.7728 141.239 41.587 140.767 41.575C140.53 41.5608 140.291 41.597 140.068 41.6813C139.845 41.7656 139.642 41.896 139.473 42.0642C139.304 42.2323 139.171 42.4344 139.085 42.6572C138.999 42.88 138.96 43.1185 138.972 43.3573C138.96 43.5935 138.998 43.8296 139.084 44.05C139.169 44.2705 139.3 44.4704 139.468 44.6366C139.636 44.8029 139.836 44.9318 140.057 45.0148C140.278 45.0979 140.514 45.1333 140.749 45.1186C141.278 45.1041 141.783 44.8984 142.173 44.5393L142.524 45.0612C142.026 45.5186 141.378 45.776 140.702 45.7841C139.248 45.7736 138.163 44.889 138.163 43.3547Z" fill="white"/>
<path d="M145.441 44.1062V39.5135H143.807V38.8664H146.229V44.1636C146.229 44.8316 146.591 45.116 147.143 45.116C147.442 45.1096 147.737 45.0384 148.007 44.9073L148.207 45.497C147.822 45.6831 147.399 45.7778 146.971 45.7736C145.995 45.7736 145.441 45.2022 145.441 44.1062Z" fill="white"/>
<path d="M149.378 43.3546C149.378 41.802 150.442 40.9148 151.657 40.9148C152.873 40.9148 153.937 41.802 153.937 43.3546C153.937 44.9073 152.873 45.7736 151.657 45.7736C150.442 45.7736 149.378 44.889 149.378 43.3546ZM153.13 43.3546C153.13 42.2874 152.542 41.5724 151.657 41.5724C150.773 41.5724 150.185 42.2874 150.185 43.3546C150.185 44.4219 150.773 45.116 151.657 45.116C152.542 45.116 153.128 44.4115 153.128 43.3546H153.13Z" fill="white"/>
<path d="M156.461 43.8583V41.6689H155.16V41.0766L156.497 41.0296L156.604 39.5422H157.26V41.0296H159.526V41.6689H157.265V43.8687C157.265 44.6985 157.525 45.1265 158.433 45.1265C158.81 45.1254 159.183 45.0546 159.534 44.9177L159.706 45.497C159.245 45.678 158.756 45.7718 158.261 45.7736C156.898 45.7736 156.461 45.0012 156.461 43.8583Z" fill="white"/>
<path d="M161.087 38.8664H161.868V40.7139L161.818 41.8098H161.868C162.334 41.288 162.875 40.9044 163.588 40.9044C164.681 40.9044 165.185 41.5515 165.185 42.7727V45.6431H164.405V42.8876C164.405 42.0108 164.1 41.6011 163.348 41.6011C162.799 41.6011 162.427 41.8777 161.896 42.4309V45.651H161.116L161.087 38.8664Z" fill="white"/>
<path d="M168.893 41.6689H166.76V41.0296H169.687V45.651H168.906L168.893 41.6689ZM168.579 39.4483C168.579 39.2815 168.645 39.1215 168.762 39.0036C168.88 38.8857 169.039 38.8194 169.206 38.8194C169.372 38.8194 169.532 38.8857 169.649 39.0036C169.767 39.1215 169.833 39.2815 169.833 39.4483C169.833 39.6151 169.767 39.775 169.649 39.893C169.532 40.0109 169.372 40.0772 169.206 40.0772C169.039 40.0772 168.88 40.0109 168.762 39.893C168.645 39.775 168.579 39.6151 168.579 39.4483Z" fill="white"/>
<path d="M172.49 41.0296H173.135L173.202 41.8125H173.239C173.723 41.3088 174.256 40.9174 174.98 40.9174C176.07 40.9174 176.575 41.5646 176.575 42.7858V45.6562H175.794V42.8876C175.794 42.0108 175.49 41.6011 174.753 41.6011C174.202 41.6011 173.83 41.8777 173.299 42.4309V45.651H172.518L172.49 41.0296Z" fill="white"/>
<path d="M178.001 46.5069C178.001 46.1363 178.261 45.7658 178.761 45.4787V45.4396C178.617 45.3711 178.496 45.2631 178.412 45.1281C178.328 44.9932 178.283 44.8369 178.284 44.6776C178.301 44.4997 178.36 44.3282 178.456 44.1776C178.552 44.0269 178.682 43.9014 178.836 43.8113V43.7722C178.654 43.6307 178.508 43.4484 178.409 43.2399C178.31 43.0315 178.261 42.8026 178.266 42.5718C178.266 41.5619 179.101 40.9148 180.088 40.9148C180.32 40.9103 180.551 40.9492 180.769 41.0296H182.679V41.6689H181.482C181.724 41.9193 181.864 42.2518 181.873 42.6005C181.873 43.5921 181.092 44.1923 180.088 44.1923C179.818 44.1884 179.553 44.1298 179.307 44.0201C179.205 44.069 179.117 44.1443 179.054 44.2383C178.99 44.3323 178.953 44.4416 178.945 44.555C178.945 44.9177 179.297 45.0769 179.905 45.0769H180.946C182.135 45.0769 182.705 45.3822 182.705 46.165C182.705 47.0314 181.706 47.7829 180.14 47.7829C178.781 47.7933 178.001 47.3262 178.001 46.5069ZM181.925 46.2981C181.925 45.8597 181.573 45.7371 180.884 45.7371H179.981C179.743 45.7434 179.506 45.7171 179.276 45.6588C178.841 45.8989 178.688 46.165 178.688 46.4416C178.688 46.927 179.208 47.2245 180.199 47.2245C181.248 47.2166 181.904 46.7757 181.904 46.2981H181.925ZM181.144 42.5718C181.138 42.3619 181.071 42.1584 180.951 41.9866C180.83 41.8149 180.662 41.6826 180.467 41.6062C180.272 41.5299 180.059 41.513 179.854 41.5576C179.65 41.6022 179.463 41.7063 179.317 41.8569C179.171 42.0074 179.073 42.1979 179.034 42.4042C178.996 42.6106 179.019 42.8238 179.1 43.0171C179.182 43.2104 179.319 43.3752 179.493 43.491C179.668 43.6067 179.873 43.6682 180.082 43.6678C180.224 43.668 180.363 43.6393 180.493 43.5836C180.623 43.528 180.74 43.4464 180.837 43.3438C180.935 43.2413 181.01 43.12 181.059 42.9873C181.109 42.8546 181.13 42.7132 181.123 42.5718H181.144Z" fill="white"/>
<path d="M59.5488 20.3754L59.5071 20.331L47.1733 9.33997C47.0606 9.23651 46.9289 9.15588 46.7856 9.10251L37.8631 5.90592C37.6915 5.84418 37.5078 5.8236 37.3267 5.84583C37.1457 5.86805 36.9724 5.93247 36.8207 6.03392C36.6689 6.13537 36.543 6.27103 36.4529 6.43006C36.3628 6.58908 36.3111 6.76704 36.3019 6.9497C36.3019 7.21065 35.9142 13.168 29.9711 13.262C23.9863 13.168 23.6168 7.20804 23.6038 6.9497C23.5941 6.76726 23.542 6.58961 23.4518 6.43088C23.3615 6.27216 23.2356 6.13673 23.084 6.03539C22.9324 5.93404 22.7594 5.86956 22.5786 5.84709C22.3978 5.82461 22.2142 5.84476 22.0425 5.90592L13.1331 9.13904C12.9899 9.19151 12.8583 9.27126 12.7453 9.37389L0.489596 20.3441C0.377854 20.4504 0.288121 20.5777 0.225538 20.7188C0.162954 20.86 0.128748 21.0121 0.124881 21.1665C0.121014 21.3209 0.14756 21.4746 0.202999 21.6187C0.258439 21.7628 0.341682 21.8945 0.447962 22.0063L0.489596 22.0506L10.2448 31.9379V58.964C10.2444 59.1185 10.2744 59.2714 10.3331 59.4142C10.3918 59.557 10.478 59.6867 10.5868 59.7961C10.6956 59.9054 10.8248 59.9921 10.967 60.0513C11.1092 60.1104 11.2617 60.1409 11.4157 60.1409H48.5785C48.8892 60.1402 49.1871 60.0159 49.4066 59.7953C49.6261 59.5747 49.7494 59.2757 49.7494 58.964V31.9248L59.5045 22.0376C59.73 21.8229 59.8612 21.5273 59.8695 21.2157C59.8778 20.904 59.7625 20.6018 59.5488 20.3754ZM49.7182 28.5743V23.1179C49.6983 22.82 49.5664 22.5408 49.3489 22.3368C49.1315 22.1329 48.845 22.0194 48.5472 22.0194C48.2495 22.0194 47.9629 22.1329 47.7455 22.3368C47.5281 22.5408 47.3961 22.82 47.3763 23.1179V57.7298H12.5398V23.1179C12.52 22.82 12.388 22.5408 12.1706 22.3368C11.9532 22.1329 11.6666 22.0194 11.3689 22.0194C11.0711 22.0194 10.7845 22.1329 10.5671 22.3368C10.3497 22.5408 10.2177 22.82 10.1979 23.1179V28.5978L2.99019 21.273L14.1505 11.2553L21.4883 8.59888C21.871 10.5734 22.9266 12.3529 24.4743 13.6324C26.022 14.9118 27.9653 15.6116 29.9711 15.6116C31.9768 15.6116 33.9201 14.9118 35.4678 13.6324C37.0155 12.3529 38.0711 10.5734 38.4538 8.59888L45.7916 11.2553L56.9181 21.273L49.7182 28.5743Z" fill="#EE2A7B"/>
<path d="M40.1555 35.8286H41.774C42.0544 35.8286 42.3234 35.9401 42.5219 36.1387C42.7204 36.3373 42.8323 36.6068 42.833 36.888V37.7987C42.8323 38.0799 42.7204 38.3494 42.5219 38.548C42.3234 38.7466 42.0544 38.8582 41.774 38.8582H32.9712C32.6907 38.8582 32.4217 38.7466 32.2232 38.548C32.0247 38.3494 31.9128 38.0799 31.9121 37.7987V36.888C31.9128 36.6068 32.0247 36.3373 32.2232 36.1387C32.4217 35.9401 32.6907 35.8286 32.9712 35.8286H34.5896C35.1725 35.8286 35.6461 34.2629 35.6461 33.6758V26.3458C35.6461 26.0641 35.7577 25.794 35.9563 25.5948C36.1549 25.3956 36.4243 25.2838 36.7051 25.2838H38.04C38.3204 25.2844 38.5891 25.3966 38.7872 25.5957C38.9852 25.7948 39.0964 26.0646 39.0964 26.3458V33.6758C39.0964 34.2603 39.5726 35.8286 40.1555 35.8286Z" fill="#EE2A7B"/>
<path d="M35.4378 28.0002L32.2034 22.6404C32.0783 22.4316 32.0106 22.1933 32.0072 21.9498C32.0038 21.7062 32.0649 21.4661 32.1842 21.254C32.3034 21.0418 32.4767 20.8651 32.6862 20.7419C32.8957 20.6188 33.1341 20.5535 33.3769 20.5528H34.0483C34.2918 20.552 34.5311 20.6165 34.7415 20.7394C34.9519 20.8623 35.1258 21.0393 35.2452 21.2521L36.7388 23.8929C37.1552 24.6757 37.5038 24.6366 37.9384 23.8929L39.5803 21.2417C39.7003 21.0301 39.874 20.8542 40.0838 20.7318C40.2936 20.6094 40.5319 20.545 40.7746 20.545H41.3705C41.6132 20.5461 41.8512 20.6117 42.0603 20.7351C42.2695 20.8585 42.4424 21.0352 42.5613 21.2473C42.6803 21.4594 42.7411 21.6993 42.7376 21.9426C42.7341 22.1859 42.6664 22.424 42.5414 22.6325L39.3097 27.935C39.1771 28.1507 39.1069 28.3991 39.1067 28.6526V31.596C39.1071 31.7771 39.0717 31.9564 39.0028 32.1237C38.9339 32.291 38.8327 32.443 38.7051 32.571C38.5774 32.6991 38.4258 32.8005 38.259 32.8696C38.0921 32.9388 37.9133 32.9742 37.7328 32.9738H37.0251C36.6607 32.9738 36.3112 32.8287 36.0536 32.5703C35.7959 32.3119 35.6512 31.9614 35.6512 31.596V28.7178C35.648 28.4633 35.5741 28.2148 35.4378 28.0002Z" fill="#EE2A7B"/>
<path d="M24.8763 47.0597L28.1237 52.4195C28.248 52.6286 28.315 52.867 28.3179 53.1104C28.3208 53.3539 28.2594 53.5937 28.1399 53.8057C28.0205 54.0177 27.8473 54.1942 27.6379 54.3174C27.4285 54.4406 27.1903 54.506 26.9475 54.5071H26.2762C26.0326 54.5065 25.7936 54.4412 25.5833 54.3179C25.3731 54.1946 25.1992 54.0177 25.0792 53.8051L23.5908 51.1591C23.1719 50.3894 22.8232 50.4181 22.3913 51.1591L20.7468 53.8103C20.6306 54.0239 20.4601 54.2028 20.2526 54.3288C20.0451 54.4549 19.808 54.5236 19.5654 54.528H18.9722C18.7293 54.5272 18.4909 54.462 18.2814 54.3388C18.0719 54.2156 17.8987 54.039 17.7794 53.8268C17.6601 53.6146 17.599 53.3745 17.6024 53.131C17.6058 52.8874 17.6735 52.6491 17.7986 52.4404L21.033 47.138C21.164 46.9207 21.2333 46.6717 21.2334 46.4178V44.6512L24.6889 44.6825V46.3682C24.6899 46.6112 24.7545 46.8496 24.8763 47.0597Z" fill="#EE2A7B"/>
<path d="M37.3402 54.1313C33.7779 54.1313 30.8896 51.2609 30.8896 47.4146C30.8896 43.5682 33.7519 40.7317 37.3402 40.7317C40.9284 40.7317 43.7933 43.6021 43.7933 47.4485C43.7933 51.2948 40.9388 54.1313 37.3402 54.1313ZM37.3402 44.2493C35.5526 44.2493 33.9913 45.554 33.9913 47.4485C33.9913 49.3429 35.5161 50.5955 37.3402 50.5955C39.1642 50.5955 40.6916 49.2908 40.6916 47.4146C40.6916 45.5384 39.1668 44.2493 37.3402 44.2493Z" fill="#EE2A7B"/>
<path d="M22.9481 20.5476C26.5103 20.5476 29.3986 23.418 29.3986 27.2643C29.3986 31.1107 26.5363 33.9472 22.9481 33.9472C19.3598 33.9472 16.4976 31.0767 16.4976 27.2304C16.4976 23.3841 19.3546 20.5476 22.9481 20.5476ZM22.9481 30.4296C24.7383 30.4296 26.297 29.1249 26.297 27.2304C26.297 25.3359 24.7695 24.0834 22.9481 24.0834C21.1266 24.0834 19.5992 25.3881 19.5992 27.2643C19.5992 29.1405 21.1266 30.4296 22.9481 30.4296Z" fill="#EE2A7B"/>
<path d="M17.1765 41.7129V37.1985C17.1762 37.0174 17.2115 36.8379 17.2803 36.6705C17.3492 36.503 17.4504 36.3508 17.578 36.2226C17.7056 36.0944 17.8572 35.9927 18.024 35.9233C18.1909 35.8539 18.3698 35.8181 18.5504 35.8181H19.305C19.4856 35.8181 19.6645 35.8539 19.8314 35.9233C19.9982 35.9927 20.1498 36.0944 20.2774 36.2226C20.405 36.3508 20.5062 36.503 20.5751 36.6705C20.644 36.8379 20.6792 37.0174 20.6789 37.1985V41.6346C20.6789 43.4273 21.5844 44.2806 22.9661 44.2806C24.3478 44.2806 25.2507 43.4638 25.2507 41.7233V37.1985C25.2507 36.8324 25.3958 36.4813 25.6539 36.2224C25.912 35.9636 26.2622 35.8181 26.6272 35.8181H27.3688C27.5495 35.8181 27.7283 35.8539 27.8952 35.9233C28.062 35.9927 28.2136 36.0944 28.3412 36.2226C28.4688 36.3508 28.57 36.503 28.6389 36.6705C28.7078 36.8379 28.7431 37.0174 28.7427 37.1985V41.6346C28.7427 45.6506 26.4581 47.4094 22.9297 47.4094C19.4013 47.4094 17.1765 45.6036 17.1765 41.7129Z" fill="#EE2A7B"/>
</svg>
