<svg width="20" height="20" viewBox="0 0 20 20" fill="none" xmlns="http://www.w3.org/2000/svg">
<g clip-path="url(#clip0)">
<path d="M19.9413 5.89438C19.9301 5.05285 19.7725 4.21968 19.4757 3.43215C19.2183 2.76788 18.8252 2.1646 18.3215 1.66085C17.8177 1.15711 17.2144 0.763988 16.5502 0.506599C15.7728 0.214773 14.9515 0.0569778 14.1213 0.039932C13.0524 -0.00784579 12.7135 -0.0211792 10.0002 -0.0211792C7.28683 -0.0211792 6.93905 -0.0211791 5.87794 0.039932C5.04811 0.0571031 4.22721 0.214896 3.45016 0.506599C2.78578 0.763809 2.18241 1.15687 1.67864 1.66063C1.17488 2.1644 0.781814 2.76777 0.524604 3.43215C0.232194 4.20897 0.0747408 5.03005 0.0590484 5.85993C0.0112706 6.92993 -0.00317383 7.26882 -0.00317383 9.98215C-0.00317383 12.6955 -0.00317384 13.0422 0.0590484 14.1044C0.0757151 14.9355 0.232382 15.7555 0.524604 16.5344C0.782246 17.1986 1.1756 17.8017 1.67953 18.3052C2.18347 18.8088 2.7869 19.2017 3.45127 19.4588C4.2262 19.7624 5.04724 19.9315 5.87905 19.9588C6.94905 20.0066 7.28794 20.021 10.0013 20.021C12.7146 20.021 13.0624 20.021 14.1235 19.9588C14.9537 19.9425 15.775 19.785 16.5524 19.4933C17.2165 19.2356 17.8196 18.8423 18.3233 18.3386C18.827 17.8349 19.2203 17.2318 19.4779 16.5677C19.7702 15.7899 19.9268 14.9699 19.9435 14.1377C19.9913 13.0688 20.0057 12.7299 20.0057 10.0155C20.0035 7.30215 20.0035 6.95771 19.9413 5.89438ZM9.99349 15.1133C7.15572 15.1133 4.85683 12.8144 4.85683 9.9766C4.85683 7.13882 7.15572 4.83993 9.99349 4.83993C11.3558 4.83993 12.6624 5.38111 13.6257 6.34443C14.589 7.30774 15.1302 8.61427 15.1302 9.9766C15.1302 11.3389 14.589 12.6455 13.6257 13.6088C12.6624 14.5721 11.3558 15.1133 9.99349 15.1133ZM15.3346 5.84771C14.6713 5.84771 14.1368 5.31215 14.1368 4.64993C14.1368 4.49271 14.1678 4.33703 14.228 4.19177C14.2881 4.04652 14.3763 3.91454 14.4875 3.80337C14.5987 3.6922 14.7306 3.60401 14.8759 3.54384C15.0211 3.48368 15.1768 3.45271 15.3341 3.45271C15.4913 3.45271 15.647 3.48368 15.7922 3.54384C15.9375 3.60401 16.0694 3.6922 16.1806 3.80337C16.2918 3.91454 16.38 4.04652 16.4401 4.19177C16.5003 4.33703 16.5313 4.49271 16.5313 4.64993C16.5313 5.31215 15.9957 5.84771 15.3346 5.84771Z" fill="#EE2A7B"/>
<path d="M9.99341 13.3134C11.8362 13.3134 13.3301 11.8195 13.3301 9.97674C13.3301 8.13395 11.8362 6.64008 9.99341 6.64008C8.15062 6.64008 6.65674 8.13395 6.65674 9.97674C6.65674 11.8195 8.15062 13.3134 9.99341 13.3134Z" fill="#EE2A7B"/>
</g>
<defs>
<clipPath id="clip0">
<rect width="20" height="20" fill="white"/>
</clipPath>
</defs>
</svg>
