<svg width="20" height="20" viewBox="0 0 20 20" fill="none" xmlns="http://www.w3.org/2000/svg">
<g clip-path="url(#clip0)">
<path d="M19.9413 5.89456C19.9301 5.05303 19.7725 4.21987 19.4757 3.43234C19.2183 2.76806 18.8252 2.16478 18.3215 1.66104C17.8177 1.1573 17.2144 0.764171 16.5502 0.506782C15.7728 0.214956 14.9515 0.0571609 14.1213 0.0401151C13.0524 -0.00766269 12.7135 -0.0209961 10.0002 -0.0209961C7.28683 -0.0209961 6.93905 -0.020996 5.87794 0.0401151C5.04811 0.0572862 4.22721 0.21508 3.45016 0.506782C2.78578 0.763992 2.18241 1.15705 1.67864 1.66082C1.17488 2.16458 0.781814 2.76796 0.524604 3.43234C0.232194 4.20915 0.0747408 5.03024 0.0590484 5.86012C0.0112706 6.93011 -0.00317383 7.269 -0.00317383 9.98234C-0.00317383 12.6957 -0.00317384 13.0423 0.0590484 14.1046C0.0757151 14.9357 0.232382 15.7557 0.524604 16.5346C0.782246 17.1987 1.1756 17.8019 1.67953 18.3054C2.18347 18.809 2.7869 19.2019 3.45127 19.459C4.2262 19.7626 5.04724 19.9316 5.87905 19.959C6.94905 20.0068 7.28794 20.0212 10.0013 20.0212C12.7146 20.0212 13.0624 20.0212 14.1235 19.959C14.9537 19.9427 15.775 19.7852 16.5524 19.4934C17.2165 19.2358 17.8196 18.8425 18.3233 18.3388C18.827 17.8351 19.2203 17.232 19.4779 16.5679C19.7702 15.7901 19.9268 14.9701 19.9435 14.1379C19.9913 13.069 20.0057 12.7301 20.0057 10.0157C20.0035 7.30234 20.0035 6.95789 19.9413 5.89456ZM9.99349 15.1134C7.15572 15.1134 4.85683 12.8146 4.85683 9.97678C4.85683 7.139 7.15572 4.84011 9.99349 4.84011C11.3558 4.84011 12.6624 5.3813 13.6257 6.34461C14.589 7.30792 15.1302 8.61445 15.1302 9.97678C15.1302 11.3391 14.589 12.6456 13.6257 13.609C12.6624 14.5723 11.3558 15.1134 9.99349 15.1134ZM15.3346 5.84789C14.6713 5.84789 14.1368 5.31234 14.1368 4.65011C14.1368 4.49289 14.1678 4.33721 14.228 4.19196C14.2881 4.0467 14.3763 3.91472 14.4875 3.80355C14.5987 3.69238 14.7306 3.60419 14.8759 3.54403C15.0211 3.48386 15.1768 3.45289 15.3341 3.45289C15.4913 3.45289 15.647 3.48386 15.7922 3.54403C15.9375 3.60419 16.0694 3.69238 16.1806 3.80355C16.2918 3.91472 16.38 4.0467 16.4401 4.19196C16.5003 4.33721 16.5313 4.49289 16.5313 4.65011C16.5313 5.31234 15.9957 5.84789 15.3346 5.84789Z" fill="white"/>
<path d="M9.99341 13.3135C11.8362 13.3135 13.3301 11.8196 13.3301 9.9768C13.3301 8.13401 11.8362 6.64014 9.99341 6.64014C8.15062 6.64014 6.65674 8.13401 6.65674 9.9768C6.65674 11.8196 8.15062 13.3135 9.99341 13.3135Z" fill="white"/>
</g>
<defs>
<clipPath id="clip0">
<rect width="20" height="20" fill="white"/>
</clipPath>
</defs>
</svg>
