<svg width="100" height="32" viewBox="0 0 100 32" fill="none" xmlns="http://www.w3.org/2000/svg">
<path d="M37.9666 12.6382H47.8264C48.0366 12.6386 48.2382 12.7225 48.3869 12.8716C48.5356 13.0207 48.6193 13.2228 48.6196 13.4337V14.1164C48.6193 14.3273 48.5356 14.5294 48.3869 14.6785C48.2382 14.8276 48.0366 14.9116 47.8264 14.9119H40.5532C40.449 14.9118 40.3458 14.9322 40.2494 14.9721C40.1531 15.012 40.0656 15.0706 39.9919 15.1445C39.9182 15.2184 39.8597 15.3062 39.8199 15.4028C39.7801 15.4994 39.7598 15.6029 39.7599 15.7075C39.7599 15.9185 39.8435 16.1208 39.9923 16.27C40.1411 16.4192 40.3428 16.503 40.5532 16.503H46.0541C46.2645 16.503 46.4663 16.5868 46.6151 16.736C46.7638 16.8852 46.8474 17.0875 46.8474 17.2985V17.8627C46.847 18.0736 46.7633 18.2757 46.6147 18.4249C46.466 18.574 46.2644 18.6579 46.0541 18.6583H40.5532C40.449 18.6581 40.3458 18.6785 40.2494 18.7184C40.1531 18.7584 40.0656 18.817 39.9919 18.8909C39.9182 18.9648 39.8597 19.0525 39.8199 19.1491C39.7801 19.2457 39.7598 19.3493 39.7599 19.4538V21.2043C39.7599 21.4152 39.6764 21.6176 39.5276 21.7668C39.3788 21.916 39.1771 21.9998 38.9667 21.9998H37.9666C37.7562 21.9998 37.5545 21.916 37.4057 21.7668C37.2569 21.6176 37.1733 21.4152 37.1733 21.2043V13.4337C37.1737 13.2228 37.2574 13.0207 37.4061 12.8716C37.5548 12.7225 37.7563 12.6386 37.9666 12.6382Z" fill="white"/>
<path d="M49.9683 12.6382H50.9824C51.1927 12.6386 51.3943 12.7225 51.5429 12.8716C51.6916 13.0207 51.7753 13.2228 51.7757 13.4337V21.2014C51.7757 21.4124 51.6921 21.6148 51.5434 21.764C51.3946 21.9132 51.1928 21.997 50.9824 21.997H49.9683C49.7579 21.997 49.5562 21.9132 49.4074 21.764C49.2586 21.6148 49.175 21.4124 49.175 21.2014V13.4337C49.1754 13.2228 49.2591 13.0207 49.4078 12.8716C49.5565 12.7225 49.7581 12.6386 49.9683 12.6382Z" fill="white"/>
<path d="M54.6283 14.9119H53.4158C53.2054 14.9119 53.0037 14.8281 52.8549 14.6789C52.7061 14.5297 52.6226 14.3274 52.6226 14.1164V13.4337C52.6226 13.2227 52.7061 13.0204 52.8549 12.8712C53.0037 12.722 53.2054 12.6382 53.4158 12.6382H60.0139C60.2242 12.6382 60.426 12.722 60.5748 12.8712C60.7236 13.0204 60.8071 13.2227 60.8071 13.4337V14.1164C60.8071 14.3274 60.7236 14.5297 60.5748 14.6789C60.426 14.8281 60.2242 14.9119 60.0139 14.9119H58.8014C58.6972 14.9118 58.594 14.9322 58.4976 14.9721C58.4013 15.012 58.3138 15.0706 58.2401 15.1445C58.1664 15.2184 58.108 15.3062 58.0682 15.4028C58.0284 15.4994 58.008 15.603 58.0081 15.7075V21.2014C58.0081 21.4124 57.9246 21.6148 57.7758 21.764C57.627 21.9132 57.4253 21.997 57.2149 21.997H56.2148C56.0044 21.997 55.8027 21.9132 55.6539 21.764C55.5051 21.6148 55.4215 21.4124 55.4215 21.2014V15.7075C55.4217 15.603 55.4013 15.4994 55.3615 15.4028C55.3217 15.3062 55.2633 15.2184 55.1896 15.1445C55.1159 15.0706 55.0284 15.012 54.9321 14.9721C54.8357 14.9322 54.7325 14.9118 54.6283 14.9119Z" fill="white"/>
<path d="M59.4919 16.0684H63.7734C63.8537 16.0687 63.9306 16.101 63.9873 16.1581C64.044 16.2152 64.0758 16.2925 64.0758 16.373V16.6974C64.0758 16.778 64.044 16.8553 63.9873 16.9124C63.9306 16.9695 63.8537 17.0017 63.7734 17.0021H60.5538C60.4736 17.0021 60.3967 17.0341 60.34 17.0909C60.2833 17.1478 60.2514 17.225 60.2514 17.3054V17.3519C60.2514 17.4324 60.2833 17.5095 60.34 17.5664C60.3967 17.6232 60.4736 17.6552 60.5538 17.6552H63.1644C63.2446 17.6552 63.3215 17.6871 63.3782 17.744C63.4349 17.8009 63.4668 17.878 63.4668 17.9585V18.2406C63.4668 18.321 63.4349 18.3981 63.3782 18.455C63.3215 18.5119 63.2446 18.5438 63.1644 18.5438H60.5538C60.4735 18.5442 60.3966 18.5765 60.3399 18.6336C60.2832 18.6906 60.2514 18.7679 60.2514 18.8485V19.7639C60.2514 19.8039 60.2436 19.8435 60.2283 19.8805C60.213 19.9175 60.1907 19.9511 60.1625 19.9794C60.1342 20.0076 60.1007 20.0301 60.0639 20.0454C60.027 20.0607 59.9875 20.0686 59.9476 20.0686H59.4919C59.4116 20.0682 59.3347 20.036 59.278 19.9789C59.2213 19.9218 59.1895 19.8445 59.1895 19.7639V16.3787C59.1888 16.3383 59.196 16.2982 59.2109 16.2607C59.2257 16.2231 59.2478 16.189 59.276 16.1601C59.3041 16.1312 59.3377 16.1082 59.3748 16.0925C59.4118 16.0767 59.4517 16.0685 59.4919 16.0684Z" fill="white"/>
<path d="M64.0759 18.0671C64.0759 16.964 64.962 16.0684 66.1449 16.0684C67.3278 16.0684 68.2027 16.9528 68.2027 18.0671C68.2027 19.1814 67.3152 20.0643 66.1337 20.0643C64.9522 20.0643 64.0759 19.1814 64.0759 18.0671ZM67.1182 18.0671C67.1235 17.9336 67.102 17.8004 67.0551 17.6754C67.0081 17.5504 66.9366 17.4361 66.8448 17.3393C66.753 17.2425 66.6427 17.1651 66.5206 17.1118C66.3984 17.0585 66.2669 17.0303 66.1337 17.0289C65.5542 17.0289 65.1646 17.5014 65.1646 18.0671C65.1593 18.2005 65.1808 18.3336 65.2278 18.4585C65.2748 18.5835 65.3463 18.6977 65.4381 18.7943C65.5299 18.891 65.6402 18.9682 65.7623 19.0214C65.8845 19.0746 66.016 19.1026 66.1491 19.1038C66.73 19.108 67.1182 18.6313 67.1182 18.0671Z" fill="white"/>
<path d="M68.7539 16.5268C68.7539 16.4463 68.7857 16.369 68.8424 16.3119C68.8991 16.2548 68.976 16.2225 69.0563 16.2222H70.5655C71.1506 16.2222 71.5501 16.3759 71.8131 16.634C71.9289 16.7545 72.0187 16.8975 72.077 17.0543C72.1353 17.2111 72.1609 17.3782 72.1521 17.5452C72.16 17.7465 72.117 17.9465 72.0269 18.1266C71.9369 18.3066 71.8029 18.4609 71.6373 18.5749C71.5706 18.6202 71.5244 18.69 71.5086 18.7691C71.4928 18.8483 71.5087 18.9305 71.5529 18.9981L71.9538 19.5862C71.9851 19.6319 72.0034 19.6852 72.0066 19.7405C72.0099 19.7958 71.998 19.851 71.9722 19.9C71.9463 19.949 71.9077 19.9899 71.8603 20.0184C71.8129 20.0469 71.7586 20.0618 71.7034 20.0616H71.2153C71.1648 20.0609 71.1152 20.0477 71.071 20.0231C71.0268 19.9985 70.9894 19.9632 70.9622 19.9205L70.37 19.0277C70.3432 18.9849 70.306 18.9496 70.2621 18.9249C70.2181 18.9003 70.1686 18.8871 70.1182 18.8866C70.038 18.8866 69.9611 18.9186 69.9044 18.9755C69.8477 19.0323 69.8158 19.1095 69.8158 19.1899V19.747C69.8155 19.8276 69.7833 19.9047 69.7264 19.9616C69.6694 20.0184 69.5924 20.0503 69.512 20.0503H69.0563C68.9761 20.0503 68.8992 20.0184 68.8425 19.9615C68.7858 19.9046 68.7539 19.8275 68.7539 19.747V16.5268ZM70.5163 18.0671C70.8778 18.0671 71.0859 17.8908 71.0859 17.6002C71.0859 17.3097 70.8665 17.1446 70.5107 17.1446H70.1182C70.038 17.1446 69.9611 17.1766 69.9044 17.2335C69.8477 17.2903 69.8158 17.3675 69.8158 17.4479V17.7624C69.8158 17.843 69.8476 17.9203 69.9043 17.9774C69.961 18.0345 70.0379 18.0667 70.1182 18.0671H70.5163Z" fill="white"/>
<path d="M77.6206 16.3931L80.0581 20.4117C80.1528 20.5684 80.2043 20.7476 80.2073 20.9308C80.2103 21.1141 80.1646 21.2948 80.0751 21.4546C79.9855 21.6143 79.8551 21.7473 79.6974 21.8399C79.5397 21.9325 79.3603 21.9814 79.1776 21.9816H78.674C78.4914 21.9813 78.3122 21.9325 78.1545 21.8401C77.9969 21.7477 77.8665 21.6149 77.7767 21.4555L76.6599 19.4723C76.3477 18.8954 76.086 18.9152 75.7611 19.4723L74.5304 21.4597C74.4403 21.6184 74.3099 21.7503 74.1526 21.8422C73.9953 21.9341 73.8165 21.9826 73.6345 21.983H73.1886C73.0055 21.9829 72.8258 21.9339 72.6679 21.841C72.51 21.7481 72.3796 21.6148 72.2901 21.4547C72.2006 21.2945 72.1552 21.1134 72.1586 20.9298C72.162 20.7463 72.2141 20.567 72.3095 20.4103L74.7287 16.4284C74.8277 16.2662 74.8803 16.0798 74.8806 15.8896V13.6892C74.8806 13.4152 74.9891 13.1525 75.1821 12.9586C75.3752 12.7647 75.637 12.6556 75.9102 12.6553H76.4405C76.7137 12.6556 76.9755 12.7647 77.1686 12.9586C77.3616 13.1525 77.4701 13.4152 77.4701 13.6892V15.8642C77.4715 16.0509 77.5235 16.2338 77.6206 16.3931Z" fill="white"/>
<path d="M84.9965 12.2954C87.6689 12.2954 89.8321 14.4535 89.8321 17.331C89.8321 20.2084 87.6942 22.3411 84.9965 22.3411C82.3241 22.3411 80.1609 20.183 80.1609 17.3042C80.1609 14.4253 82.3002 12.2954 84.9965 12.2954ZM84.9965 19.7034C86.3383 19.7034 87.5072 18.7302 87.5072 17.3056C87.5072 15.8809 86.3651 14.9486 84.9965 14.9486C83.6547 14.9486 82.4859 15.9204 82.4859 17.3324C82.4859 18.7443 83.628 19.7034 84.9965 19.7034Z" fill="white"/>
<path d="M90.3596 17.8911V13.6892C90.3596 13.4152 90.468 13.1525 90.6611 12.9586C90.8541 12.7647 91.116 12.6556 91.3892 12.6553H91.9518C92.225 12.6556 92.4869 12.7647 92.6799 12.9586C92.873 13.1525 92.9814 13.4152 92.9814 13.6892V17.8389C92.9814 19.1846 93.6593 19.8249 94.6959 19.8249C95.7325 19.8249 96.4091 19.2114 96.4091 17.9052V13.6892C96.4091 13.415 96.5177 13.152 96.7111 12.9581C96.9044 12.7642 97.1666 12.6553 97.4401 12.6553H98.0027C98.1381 12.6553 98.2721 12.682 98.3972 12.734C98.5223 12.7859 98.636 12.8621 98.7317 12.9581C98.8274 13.0541 98.9034 13.1681 98.9552 13.2935C99.007 13.419 99.0337 13.5534 99.0337 13.6892V17.8248C99.0337 20.8349 97.3191 22.1537 94.6734 22.1537C92.0278 22.1537 90.3596 20.8095 90.3596 17.8911Z" fill="white"/>
<path d="M32.1885 9.25157L32.166 9.22759L25.4991 3.28649C25.4381 3.23056 25.3669 3.18698 25.2895 3.15813L20.4665 1.43024C20.3737 1.39687 20.2744 1.38575 20.1766 1.39776C20.0787 1.40978 19.985 1.44459 19.903 1.49943C19.821 1.55427 19.7529 1.6276 19.7042 1.71356C19.6555 1.79952 19.6276 1.89572 19.6226 1.99445C19.6226 2.1355 19.413 5.35572 16.2005 5.40649C12.9655 5.35572 12.7658 2.13409 12.7588 1.99445C12.7535 1.89583 12.7254 1.7998 12.6766 1.71401C12.6278 1.62821 12.5598 1.55501 12.4778 1.50022C12.3959 1.44544 12.3023 1.41059 12.2046 1.39844C12.1069 1.38629 12.0076 1.39718 11.9148 1.43024L7.09891 3.17788C7.02154 3.20624 6.95037 3.24935 6.88933 3.30482L0.264604 9.23464C0.204203 9.2921 0.155698 9.36094 0.121869 9.43723C0.0880403 9.51351 0.0695508 9.59575 0.0674603 9.67921C0.0653698 9.76267 0.0797192 9.84573 0.109687 9.92362C0.139654 10.0015 0.18465 10.0727 0.242099 10.1331L0.264604 10.1571L5.53766 15.5016V30.1103C5.53748 30.1938 5.55371 30.2765 5.58544 30.3536C5.61716 30.4308 5.66376 30.501 5.72255 30.56C5.78134 30.6191 5.85118 30.666 5.92806 30.698C6.00494 30.73 6.08736 30.7465 6.1706 30.7465H26.2586C26.4266 30.7461 26.5876 30.6789 26.7062 30.5596C26.8249 30.4404 26.8915 30.2788 26.8915 30.1103V15.4945L32.1646 10.1501C32.2864 10.034 32.3574 9.87423 32.3619 9.70578C32.3663 9.53732 32.304 9.37397 32.1885 9.25157ZM26.8746 13.6834V10.734C26.8639 10.573 26.7926 10.4221 26.6751 10.3118C26.5575 10.2016 26.4026 10.1402 26.2417 10.1402C26.0808 10.1402 25.9259 10.2016 25.8083 10.3118C25.6908 10.4221 25.6195 10.573 25.6088 10.734V29.4431H6.77822V10.734C6.76751 10.573 6.69617 10.4221 6.57865 10.3118C6.46113 10.2016 6.30621 10.1402 6.14528 10.1402C5.98435 10.1402 5.82944 10.2016 5.71192 10.3118C5.5944 10.4221 5.52306 10.573 5.51235 10.734V13.6961L1.61627 9.73678L7.64886 4.32181L11.6153 2.8859C11.8221 3.9532 12.3927 4.91511 13.2293 5.60671C14.0659 6.29831 15.1163 6.67653 16.2005 6.67653C17.2847 6.67653 18.3352 6.29831 19.1717 5.60671C20.0083 4.91511 20.5789 3.9532 20.7858 2.8859L24.7522 4.32181L30.7665 9.73678L26.8746 13.6834Z" fill="white"/>
<path d="M21.7056 17.6047H22.5805C22.7321 17.6047 22.8775 17.665 22.9848 17.7723C23.0921 17.8797 23.1526 18.0253 23.1529 18.1774V18.6696C23.1526 18.8216 23.0921 18.9673 22.9848 19.0747C22.8775 19.182 22.7321 19.2423 22.5805 19.2423H17.8222C17.6706 19.2423 17.5252 19.182 17.4179 19.0747C17.3106 18.9673 17.2501 18.8216 17.2498 18.6696V18.1774C17.2501 18.0253 17.3106 17.8797 17.4179 17.7723C17.5252 17.665 17.6706 17.6047 17.8222 17.6047H18.6971C19.0121 17.6047 19.2681 16.7584 19.2681 16.441V12.4789C19.2681 12.3266 19.3284 12.1806 19.4358 12.0729C19.5431 11.9653 19.6888 11.9048 19.8406 11.9048H20.5621C20.7137 11.9052 20.8589 11.9658 20.966 12.0734C21.0731 12.181 21.1332 12.3269 21.1332 12.4789V16.441C21.1332 16.757 21.3906 17.6047 21.7056 17.6047Z" fill="white"/>
<path d="M19.1557 13.3731L17.4074 10.4759C17.3398 10.3631 17.3032 10.2343 17.3013 10.1026C17.2995 9.97097 17.3325 9.84119 17.397 9.7265C17.4615 9.61182 17.5551 9.51632 17.6684 9.44974C17.7816 9.38316 17.9105 9.34788 18.0417 9.34749H18.4046C18.5362 9.34709 18.6656 9.3819 18.7793 9.44835C18.8931 9.5148 18.9871 9.61048 19.0516 9.72551L19.859 11.153C20.084 11.5761 20.2725 11.555 20.5074 11.153L21.3949 9.71987C21.4597 9.6055 21.5536 9.51041 21.667 9.44426C21.7804 9.3781 21.9093 9.34326 22.0405 9.34326H22.3626C22.4937 9.3439 22.6224 9.37936 22.7355 9.44604C22.8485 9.51272 22.942 9.60824 23.0063 9.72288C23.0706 9.83753 23.1035 9.96721 23.1016 10.0987C23.0997 10.2303 23.0631 10.3589 22.9955 10.4717L21.2486 13.3379C21.177 13.4545 21.139 13.5888 21.1389 13.7257V15.3168C21.1391 15.4147 21.12 15.5116 21.0828 15.602C21.0455 15.6925 20.9908 15.7747 20.9218 15.8438C20.8528 15.913 20.7709 15.9679 20.6807 16.0052C20.5905 16.0426 20.4938 16.0617 20.3963 16.0616H20.0137C19.8167 16.0616 19.6278 15.9831 19.4886 15.8434C19.3493 15.7038 19.271 15.5143 19.271 15.3168V13.761C19.2693 13.6235 19.2294 13.4891 19.1557 13.3731Z" fill="white"/>
<path d="M13.4465 23.6754L15.2019 26.5727C15.2691 26.6857 15.3053 26.8145 15.3069 26.9461C15.3084 27.0777 15.2752 27.2074 15.2107 27.322C15.1461 27.4365 15.0525 27.532 14.9393 27.5985C14.8261 27.6651 14.6973 27.7005 14.5661 27.7011H14.2032C14.0716 27.7007 13.9424 27.6655 13.8287 27.5988C13.7151 27.5322 13.6211 27.4365 13.5562 27.3216L12.7517 25.8914C12.5253 25.4753 12.3368 25.4908 12.1033 25.8914L11.2144 27.3245C11.1516 27.4399 11.0594 27.5366 10.9472 27.6047C10.8351 27.6729 10.7069 27.71 10.5758 27.7123H10.2551C10.1238 27.712 9.995 27.6767 9.88174 27.6101C9.76848 27.5435 9.67484 27.448 9.61037 27.3333C9.5459 27.2186 9.51289 27.0889 9.51472 26.9572C9.51655 26.8256 9.55314 26.6968 9.62078 26.5839L11.3691 23.7178C11.4399 23.6003 11.4773 23.4657 11.4774 23.3285V22.3735L13.3453 22.3905V23.3017C13.3458 23.433 13.3807 23.5619 13.4465 23.6754Z" fill="white"/>
<path d="M20.1838 27.4979C18.2583 27.4979 16.697 25.9463 16.697 23.8672C16.697 21.7881 18.2442 20.2549 20.1838 20.2549C22.1234 20.2549 23.672 21.8065 23.672 23.8856C23.672 25.9647 22.129 27.4979 20.1838 27.4979ZM20.1838 22.1563C19.2175 22.1563 18.3736 22.8615 18.3736 23.8856C18.3736 24.9096 19.1978 25.5866 20.1838 25.5866C21.1698 25.5866 21.9954 24.8814 21.9954 23.8672C21.9954 22.8531 21.1712 22.1563 20.1838 22.1563Z" fill="white"/>
<path d="M12.4044 9.34473C14.3299 9.34473 15.8911 10.8963 15.8911 12.9754C15.8911 15.0545 14.344 16.5877 12.4044 16.5877C10.4648 16.5877 8.9176 15.0362 8.9176 12.9571C8.9176 10.878 10.462 9.34473 12.4044 9.34473ZM12.4044 14.6864C13.3721 14.6864 14.2146 13.9811 14.2146 12.9571C14.2146 11.933 13.3889 11.256 12.4044 11.256C11.4198 11.256 10.5942 11.9612 10.5942 12.9754C10.5942 13.9896 11.4198 14.6864 12.4044 14.6864Z" fill="white"/>
<path d="M9.28467 20.7855V18.3453C9.28448 18.2474 9.30356 18.1504 9.34079 18.0598C9.37803 17.9693 9.43271 17.8871 9.50169 17.8178C9.57066 17.7484 9.6526 17.6935 9.74279 17.6559C9.83298 17.6184 9.92967 17.5991 10.0273 17.5991H10.4352C10.5328 17.5991 10.6295 17.6184 10.7197 17.6559C10.8099 17.6935 10.8919 17.7484 10.9608 17.8178C11.0298 17.8871 11.0845 17.9693 11.1217 18.0598C11.159 18.1504 11.178 18.2474 11.1779 18.3453V20.7432C11.1779 21.7122 11.6673 22.1734 12.4142 22.1734C13.1611 22.1734 13.6491 21.7319 13.6491 20.7911V18.3453C13.6491 18.1474 13.7275 17.9576 13.867 17.8177C14.0066 17.6777 14.1958 17.5991 14.3932 17.5991H14.794C14.8917 17.5991 14.9884 17.6184 15.0785 17.6559C15.1687 17.6935 15.2507 17.7484 15.3197 17.8178C15.3886 17.8871 15.4433 17.9693 15.4805 18.0598C15.5178 18.1504 15.5369 18.2474 15.5367 18.3453V20.7432C15.5367 22.914 14.3017 23.8646 12.3945 23.8646C10.4872 23.8646 9.28467 22.8886 9.28467 20.7855Z" fill="white"/>
<path d="M37.5081 24.4765C37.5081 23.389 38.1396 22.7246 39.0173 22.7246C39.1912 22.7259 39.3631 22.7631 39.5221 22.834C39.6811 22.9049 39.8238 23.0078 39.9413 23.1365L39.691 23.4101C39.6061 23.3139 39.5017 23.2369 39.3848 23.1844C39.2679 23.1318 39.1411 23.1049 39.013 23.1054C38.3717 23.1054 37.9497 23.6259 37.9497 24.4652C37.9497 25.3044 38.3717 25.8461 39.013 25.8461C39.1586 25.8449 39.302 25.811 39.4328 25.7468C39.5635 25.6826 39.6782 25.5897 39.7683 25.4751L40.0145 25.7375C39.8898 25.8938 39.731 26.0192 39.5503 26.1041C39.3695 26.1889 39.1718 26.231 38.9722 26.2269C38.1438 26.2269 37.5081 25.5781 37.5081 24.4765Z" fill="white"/>
<path d="M40.6501 25.2186V23.667H41.0721V25.165C41.0721 25.6347 41.2367 25.8603 41.6474 25.8603C41.9287 25.8603 42.1453 25.7264 42.4224 25.4019V23.667H42.8443V26.1608H42.5039L42.4674 25.7235H42.4463C42.1945 26.0169 41.902 26.2229 41.5166 26.2229C40.923 26.2271 40.6501 25.8787 40.6501 25.2186Z" fill="white"/>
<path d="M43.7009 25.8365L43.8964 25.5544C44.2107 25.7833 44.5911 25.9027 44.9795 25.8944C45.4014 25.8944 45.6054 25.7195 45.6054 25.5079C45.6054 25.2963 45.5083 25.1835 44.8304 25.0438C44.1777 24.9112 43.8542 24.6884 43.8542 24.3132C43.8542 23.9112 44.2087 23.6079 44.8923 23.6079C45.2514 23.6158 45.6008 23.7264 45.8993 23.9267L45.694 24.2003C45.4459 24.0286 45.1515 23.9371 44.8501 23.938C44.4281 23.938 44.2748 24.1072 44.2748 24.2977C44.2748 24.5149 44.4914 24.6066 45.0048 24.7208C45.8318 24.9014 46.0315 25.1073 46.0315 25.4938C46.0315 25.8803 45.6363 26.2399 44.9218 26.2399C44.4839 26.2304 44.0588 26.0899 43.7009 25.8365Z" fill="white"/>
<path d="M47.4745 25.1919V24.0085H46.7712V23.6883L47.4942 23.6629L47.5505 22.8589H47.9049V23.6629H49.1272V24.0085H47.9049V25.1975C47.9049 25.6461 48.054 25.8774 48.5378 25.8774C48.7414 25.8768 48.9431 25.8386 49.1328 25.7646L49.2256 26.0777C48.9769 26.1755 48.7122 26.2262 48.445 26.2272C47.708 26.2272 47.4745 25.8097 47.4745 25.1919Z" fill="white"/>
<path d="M49.8066 24.9194C49.8066 24.0802 50.3819 23.6006 51.0388 23.6006C51.6956 23.6006 52.2723 24.0802 52.2723 24.9194C52.2723 25.7587 51.697 26.227 51.0388 26.227C50.3805 26.227 49.8066 25.7488 49.8066 24.9194ZM51.8348 24.9194C51.8348 24.3425 51.517 23.956 51.0388 23.956C50.5605 23.956 50.2398 24.3425 50.2398 24.9194C50.2398 25.4963 50.5591 25.8715 51.0359 25.8715C51.5128 25.8715 51.8348 25.4907 51.8348 24.9194Z" fill="white"/>
<path d="M52.8771 23.6626H53.2161L53.2527 23.9927H53.2625C53.3905 23.76 53.5438 23.6006 53.8336 23.6006C54.0797 23.6006 54.233 23.7416 54.3048 24.0336C54.4454 23.7656 54.6029 23.6006 54.8913 23.6006C55.2401 23.6006 55.4455 23.8742 55.4455 24.3735V26.1607H55.0235V24.4046C55.0235 24.1154 54.9405 23.9659 54.7563 23.9659C54.572 23.9659 54.489 24.0957 54.3554 24.3524V26.1607H53.9644V24.4046C53.9644 24.1154 53.8927 23.9659 53.7084 23.9659C53.5241 23.9659 53.4201 24.0957 53.2977 24.3524V26.1607H52.8757L52.8771 23.6626Z" fill="white"/>
<path d="M56.0981 24.3062H58.3064V24.6263H56.0981V24.3062Z" fill="white"/>
<path d="M59.0405 23.6626H59.3823L59.4175 23.9927H59.4287C59.5567 23.76 59.71 23.6006 59.9984 23.6006C60.2445 23.6006 60.3992 23.7416 60.471 24.0336C60.6116 23.7656 60.7692 23.6006 61.0561 23.6006C61.4049 23.6006 61.6103 23.8742 61.6103 24.3735V26.1607H61.1883V24.4046C61.1883 24.1154 61.1067 23.9659 60.9211 23.9659C60.7354 23.9659 60.6538 24.0957 60.5202 24.3524V26.1607H60.1306V24.4046C60.1306 24.1154 60.0589 23.9659 59.8732 23.9659C59.6875 23.9659 59.5919 24.0957 59.4625 24.3524V26.1607H59.0405V23.6626Z" fill="white"/>
<path d="M62.2346 25.5163C62.2346 24.9521 62.7578 24.6827 64.0476 24.5797C64.0322 24.2398 63.8676 23.9506 63.3852 23.9506C63.0725 23.9698 62.7708 24.0731 62.5117 24.2496L62.3415 23.9675C62.6736 23.7477 63.0593 23.6229 63.4569 23.6064C64.139 23.6064 64.4738 24.0141 64.4738 24.6361V26.1609H64.1194L64.0828 25.821H64.0673C63.7915 26.0589 63.4458 26.2 63.0828 26.223C62.6172 26.2272 62.2346 25.9648 62.2346 25.5163ZM64.0476 25.5163V24.8674C62.9787 24.9493 62.6552 25.1608 62.6552 25.4895C62.6552 25.7716 62.9126 25.8873 63.1995 25.8873C63.4864 25.8873 63.7593 25.749 64.0476 25.5121V25.5163Z" fill="white"/>
<path d="M65.2122 24.9197C65.2122 24.1059 65.7523 23.6009 66.3374 23.6009C66.6193 23.6044 66.8885 23.7189 67.087 23.9197H67.0969L67.0758 23.4613V22.4937H67.4977V26.161H67.1489L67.118 25.8366H67.1025C66.8913 26.0686 66.5981 26.2088 66.2853 26.2273C65.644 26.2273 65.2122 25.7534 65.2122 24.9197ZM67.0814 25.4967V24.2498C66.9969 24.1618 66.8958 24.0916 66.784 24.0432C66.6722 23.9948 66.552 23.9691 66.4302 23.9676C65.9984 23.9676 65.6496 24.3485 65.6496 24.9197C65.6496 25.5178 65.9309 25.8733 66.3838 25.8733C66.5204 25.865 66.6535 25.8271 66.774 25.762C66.8945 25.697 66.9994 25.6064 67.0814 25.4967Z" fill="white"/>
<path d="M68.3347 24.9097C68.328 24.7386 68.3561 24.568 68.4174 24.4082C68.4787 24.2484 68.5718 24.1028 68.691 23.9803C68.8103 23.8578 68.9532 23.7609 69.111 23.6957C69.2689 23.6304 69.4383 23.5981 69.609 23.6007C70.3278 23.6007 70.7483 24.069 70.7483 24.7757C70.7479 24.8616 70.7413 24.9474 70.7286 25.0324H68.6188V24.7023H70.4782L70.3699 24.8208C70.3699 24.2284 70.0774 23.935 69.6203 23.935C69.1631 23.935 68.7581 24.2862 68.7581 24.9097C68.7581 25.5585 69.18 25.8872 69.7328 25.8872C70.0044 25.8865 70.2695 25.8039 70.4937 25.6502L70.647 25.9323C70.3629 26.1274 70.0265 26.2317 69.6822 26.2314C68.9311 26.2271 68.3347 25.7377 68.3347 24.9097Z" fill="white"/>
<path d="M74.5586 24.9196C74.5586 24.0803 75.1957 23.6007 75.951 23.6007C76.1191 23.5981 76.286 23.629 76.442 23.6918C76.598 23.7545 76.74 23.8477 76.8597 23.9661L76.6501 24.2397C76.4646 24.0645 76.2212 23.9641 75.9665 23.9576C75.8379 23.9499 75.7091 23.9695 75.5886 24.0151C75.468 24.0606 75.3584 24.1311 75.2668 24.222C75.1753 24.3129 75.1038 24.4221 75.0572 24.5426C75.0105 24.663 74.9897 24.7919 74.996 24.921C74.9896 25.0487 75.0102 25.1763 75.0564 25.2954C75.1026 25.4146 75.1733 25.5227 75.264 25.6125C75.3546 25.7024 75.4632 25.7721 75.5826 25.817C75.702 25.8619 75.8294 25.881 75.9567 25.8731C76.2424 25.8652 76.5157 25.754 76.726 25.5599L76.9159 25.8421C76.6468 26.0893 76.2963 26.2284 75.9314 26.2328C75.1451 26.2271 74.5586 25.749 74.5586 24.9196Z" fill="white"/>
<path d="M78.4927 25.326V22.8435H77.6094V22.4937H78.9189V25.357C78.9189 25.7181 79.1144 25.8719 79.4125 25.8719C79.5745 25.8684 79.7338 25.8299 79.8795 25.759L79.9878 26.0778C79.7795 26.1784 79.5509 26.2295 79.3197 26.2273C78.7923 26.2273 78.4927 25.9184 78.4927 25.326Z" fill="white"/>
<path d="M80.6206 24.9194C80.6206 24.0802 81.1959 23.6006 81.8527 23.6006C82.5096 23.6006 83.0848 24.0802 83.0848 24.9194C83.0848 25.7587 82.5096 26.227 81.8527 26.227C81.1959 26.227 80.6206 25.7488 80.6206 24.9194ZM82.6488 24.9194C82.6488 24.3425 82.3309 23.956 81.8527 23.956C81.3745 23.956 81.0566 24.3425 81.0566 24.9194C81.0566 25.4963 81.3745 25.8715 81.8527 25.8715C82.3309 25.8715 82.6474 25.4907 82.6474 24.9194H82.6488Z" fill="white"/>
<path d="M84.4494 25.1919V24.0085H83.7461V23.6883L84.4691 23.6629L84.5267 22.8589H84.8812V23.6629H86.1063V24.0085H84.884V25.1975C84.884 25.6461 85.0246 25.8774 85.5155 25.8774C85.7191 25.8768 85.9208 25.8386 86.1105 25.7646L86.2033 26.0777C85.9546 26.1755 85.6899 26.2262 85.4227 26.2272C84.6857 26.2272 84.4494 25.8097 84.4494 25.1919Z" fill="white"/>
<path d="M86.9502 22.4937H87.3722V23.4923L87.3454 24.0847H87.3722C87.6239 23.8026 87.9165 23.5953 88.3019 23.5953C88.8926 23.5953 89.1655 23.9451 89.1655 24.6052V26.1568H88.7435V24.6673C88.7435 24.1933 88.579 23.9719 88.1725 23.9719C87.8757 23.9719 87.6746 24.1214 87.3876 24.4204V26.161H86.9657L86.9502 22.4937Z" fill="white"/>
<path d="M91.1697 24.0085H90.0164V23.663H91.5987V26.161H91.1767L91.1697 24.0085ZM90.9995 22.8082C90.9995 22.718 91.0352 22.6316 91.0988 22.5678C91.1624 22.5041 91.2486 22.4683 91.3385 22.4683C91.4284 22.4683 91.5146 22.5041 91.5782 22.5678C91.6417 22.6316 91.6775 22.718 91.6775 22.8082C91.6775 22.8984 91.6417 22.9848 91.5782 23.0486C91.5146 23.1123 91.4284 23.1481 91.3385 23.1481C91.2486 23.1481 91.1624 23.1123 91.0988 23.0486C91.0352 22.9848 90.9995 22.8984 90.9995 22.8082Z" fill="white"/>
<path d="M93.1135 23.6627H93.4623L93.4989 24.0859H93.5186C93.7802 23.8136 94.0686 23.6021 94.4596 23.6021C95.0489 23.6021 95.3218 23.9519 95.3218 24.612V26.1636H94.8998V24.667C94.8998 24.1931 94.7352 23.9716 94.3372 23.9716C94.039 23.9716 93.8379 24.1211 93.551 24.4202V26.1607H93.129L93.1135 23.6627Z" fill="white"/>
<path d="M96.0925 26.6235C96.0925 26.4232 96.2332 26.2229 96.5032 26.0678V26.0466C96.4257 26.0096 96.3603 25.9512 96.3148 25.8783C96.2692 25.8053 96.2453 25.7208 96.2458 25.6347C96.2549 25.5385 96.2866 25.4459 96.3385 25.3644C96.3903 25.283 96.4608 25.2151 96.544 25.1665V25.1453C96.4457 25.0688 96.3666 24.9703 96.3131 24.8576C96.2596 24.7449 96.2332 24.6212 96.236 24.4965C96.236 23.9506 96.6875 23.6008 97.2206 23.6008C97.3462 23.5983 97.4711 23.6194 97.5891 23.6628H98.6214V24.0084H97.9744C98.1054 24.1437 98.1807 24.3235 98.1854 24.512C98.1854 25.048 97.7635 25.3724 97.2206 25.3724C97.0751 25.3703 96.9315 25.3386 96.7986 25.2793C96.7433 25.3057 96.6961 25.3465 96.6617 25.3973C96.6274 25.4481 96.6071 25.5072 96.6031 25.5684C96.6031 25.7645 96.793 25.8506 97.1221 25.8506H97.6847C98.3275 25.8506 98.6355 26.0156 98.6355 26.4387C98.6355 26.907 98.0954 27.3133 97.2487 27.3133C96.5145 27.3189 96.0925 27.0664 96.0925 26.6235ZM98.2136 26.5107C98.2136 26.2737 98.0237 26.2074 97.651 26.2074H97.1629C97.0345 26.2108 96.9063 26.1966 96.7817 26.1651C96.5468 26.2949 96.4639 26.4387 96.4639 26.5883C96.4639 26.8506 96.7452 27.0114 97.281 27.0114C97.8479 27.0072 98.2023 26.7688 98.2023 26.5107H98.2136ZM97.7916 24.4965C97.7886 24.383 97.7522 24.273 97.6871 24.1801C97.622 24.0873 97.5311 24.0158 97.4256 23.9745C97.3202 23.9333 97.205 23.9241 97.0944 23.9482C96.9838 23.9723 96.8828 24.0286 96.8039 24.11C96.7251 24.1914 96.6719 24.2943 96.6511 24.4059C96.6303 24.5174 96.6427 24.6327 96.6869 24.7372C96.7311 24.8416 96.805 24.9307 96.8994 24.9933C96.9939 25.0559 97.1046 25.0891 97.2177 25.0889C97.2941 25.089 97.3696 25.0735 97.4397 25.0434C97.5099 25.0133 97.5732 24.9692 97.6259 24.9138C97.6785 24.8584 97.7193 24.7928 97.7459 24.721C97.7724 24.6493 97.7842 24.5729 97.7803 24.4965H97.7916Z" fill="white"/>
</svg>
