<svg width="220" height="50" viewBox="0 0 220 50" fill="none" xmlns="http://www.w3.org/2000/svg">
<path d="M23.8625 35.4605C23.9625 35.5459 24.0708 35.6313 24.1771 35.7147C22.0654 37.1164 19.5866 37.863 17.0521 37.8605C15.3626 37.8619 13.6895 37.5302 12.1284 36.8844C10.5672 36.2387 9.14868 35.2915 7.95387 34.0971C6.75907 32.9027 5.81143 31.4844 5.16517 29.9235C4.5189 28.3625 4.18668 26.6895 4.1875 25.0001C4.18728 22.6732 4.81814 20.3899 6.01291 18.3933C7.20767 16.3966 8.9216 14.7613 10.9722 13.6617C13.0227 12.562 15.3332 12.039 17.6574 12.1485C19.9817 12.258 22.2327 12.9958 24.1708 14.2834C24.0667 14.373 23.9625 14.4542 23.8833 14.5459C22.3816 15.8426 21.1767 17.4475 20.3506 19.2514C19.5245 21.0553 19.0966 23.016 19.0958 25.0001C19.0958 29.0105 20.8313 32.823 23.8625 35.4605ZM32.9479 12.1376C30.4156 12.1327 27.9388 12.8795 25.8313 14.2834C25.9333 14.373 26.0375 14.4542 26.1167 14.5459C29.1625 17.1772 30.9062 20.9917 30.9062 25.0001C30.9062 29.0084 29.1667 32.8188 26.1396 35.4605C26.0375 35.5459 25.9292 35.6313 25.825 35.7147C27.9349 37.1169 30.4125 37.8635 32.9458 37.8605C34.6486 37.8823 36.3387 37.5658 37.9182 36.9293C39.4977 36.2928 40.9351 35.349 42.1469 34.1526C43.3588 32.9563 44.321 31.5312 44.9778 29.9601C45.6346 28.3889 45.9729 26.703 45.9731 25.0001C45.9732 23.2972 45.6352 21.6112 44.9786 20.04C44.3221 18.4687 43.3601 17.0435 42.1484 15.8469C40.9367 14.6504 39.4995 13.7064 37.9202 13.0696C36.3408 12.4328 34.6507 12.116 32.9479 12.1376ZM25 14.8959C23.4684 16.0969 22.2303 17.6309 21.3799 19.3816C20.5294 21.1323 20.0889 23.0537 20.0917 25.0001C20.0876 26.9475 20.5276 28.8703 21.3781 30.6222C22.2286 32.3741 23.4673 33.9091 25 35.1105C26.5323 33.9086 27.7708 32.3735 28.6216 30.6218C29.4724 28.87 29.9131 26.9475 29.9104 25.0001C29.9133 23.0535 29.4725 21.1319 28.6217 19.3811C27.7708 17.6303 26.5323 16.0965 25 14.8959Z" fill="white"/>
<g clip-path="url(#clip0)">
<path d="M116.344 17.9642C115.182 17.5414 113.955 17.329 112.719 17.3371C108.719 17.3371 105.896 19.3538 105.875 22.2434C105.85 24.3684 107.883 25.5642 109.419 26.2767C110.996 27.0059 111.523 27.4642 111.519 28.1205C111.508 29.1142 110.258 29.5642 109.098 29.5642C107.502 29.5642 106.627 29.3413 105.283 28.783L104.785 28.5517L104.221 31.8809C105.192 32.2871 106.942 32.6351 108.752 32.6621C113.004 32.6621 115.783 30.6601 115.817 27.5809C115.85 25.8871 114.754 24.6017 112.44 23.5434C111.035 22.8559 110.16 22.3955 110.16 21.6976C110.16 21.0809 110.908 20.4226 112.471 20.4226C113.51 20.3976 114.543 20.5914 115.502 20.9913L115.877 21.1601L116.442 17.9434L116.344 17.9642ZM126.725 17.6101H123.6C122.627 17.6101 121.9 17.8746 121.473 18.8413L115.462 32.4538H119.715L120.565 30.2246L125.752 30.2288C125.879 30.7496 126.252 32.4538 126.252 32.4538H130L126.725 17.6101ZM100.125 17.4851H104.173L101.642 32.3371H97.5917L100.125 17.4809V17.4851ZM89.8354 25.6705L90.2562 27.733L94.2167 17.6101H98.5063L92.1292 32.433H87.85L84.35 19.8788C84.2936 19.6719 84.1591 19.495 83.975 19.3851C82.7162 18.7312 81.3809 18.2364 80 17.9121L80.0521 17.5996H86.575C87.4583 17.633 88.1708 17.9121 88.4146 18.858L89.8354 25.6767V25.6705ZM121.727 27.1851L123.342 23.0309C123.321 23.0726 123.675 22.1726 123.879 21.6142L124.156 22.8955L125.092 27.1809H121.727V27.1851Z" fill="white"/>
</g>
<path d="M173.962 34.0602V28.1227L170 17.4956H171.994L174.91 25.6998L178.271 15.7769H180.098L175.787 28.1935V34.0581H173.962V34.0602ZM185.708 34.0602H184.179C184.1 33.7549 184.048 33.4433 184.023 33.1289H183.904C183.392 33.781 182.74 34.2227 181.715 34.2227C180.052 34.2227 178.915 32.9706 178.915 30.6727C178.915 28.1727 180.188 26.5977 183.456 26.5977H183.712V25.9039C183.712 24.3727 183.2 23.7206 182.181 23.7206C181.254 23.7206 180.465 24.2081 179.865 24.7414L179.517 23.1456C180.05 22.7019 181.112 22.2144 182.3 22.2144C184.362 22.2144 185.494 23.0977 185.494 25.9248V31.4164C185.494 32.5289 185.608 33.5039 185.702 34.056L185.708 34.0602ZM183.719 27.9664H183.508C181.258 27.9664 180.773 28.9644 180.773 30.4664C180.773 31.8102 181.21 32.6894 182.137 32.6894C182.762 32.6894 183.39 32.2727 183.715 31.7623L183.719 27.9664ZM189.556 34.0602H187.746V22.3498H189.556V23.3727H189.673C189.994 22.9352 190.877 22.2144 191.967 22.2144C193.492 22.2144 194.302 23.0727 194.302 24.856V34.0602H192.473V25.0185C192.473 24.1373 192.081 23.831 191.381 23.831C190.623 23.831 189.975 24.4123 189.554 24.9956V34.0581L189.556 34.0602ZM196.087 28.6602C196.087 24.3269 197.712 22.2144 200.048 22.2144C200.606 22.2144 201.183 22.4019 201.533 22.6539V17.4956H203.344V34.0581H202L201.856 33.131H201.742C201.231 33.781 200.583 34.2164 199.631 34.2164C197.34 34.2164 196.092 32.2727 196.092 28.6602H196.087ZM201.535 24.2539C201.361 24.0686 201.149 23.9231 200.913 23.8274C200.677 23.7318 200.423 23.6882 200.169 23.6998C198.71 23.6998 198.012 25.9019 198.012 28.2873C198.012 31.0227 198.525 32.6914 199.848 32.6914C200.185 32.7066 200.52 32.6304 200.817 32.4709C201.115 32.3114 201.364 32.0745 201.537 31.7852V24.2539H201.535ZM209.044 34.2227C206.637 34.2227 205.15 32.2977 205.15 28.7081C205.15 24.9498 206.194 22.2164 208.671 22.2164C210.619 22.2164 211.888 23.6769 211.888 27.6414V28.6373H207.031C207.031 31.2789 207.771 32.6685 209.208 32.6685C210.227 32.6685 210.973 32.206 211.433 31.881L211.85 33.2706C211.112 33.8498 210.204 34.2206 209.048 34.2206L209.044 34.2227ZM207.05 27.1519H210.04C210.04 25.1581 209.717 23.6998 208.673 23.6998C207.565 23.6998 207.173 25.0685 207.048 27.1519H207.05ZM219.748 22.3769L217.571 27.8456L220 34.0602H218.127L216.315 29.2394L214.556 34.0581H212.775L215.204 28.0081L213.002 22.3789H214.879L216.394 26.6185L217.987 22.3769H219.75H219.748Z" fill="white"/>
<defs>
<clipPath id="clip0">
<rect x="80" width="50" height="50" fill="white"/>
</clipPath>
</defs>
</svg>
