<svg width="20" height="20" viewBox="0 0 20 20" fill="none" xmlns="http://www.w3.org/2000/svg">
<path d="M10 0C4.47715 0 0 4.47715 0 10C0 15.5229 4.47715 20 10 20C15.5229 20 20 15.5229 20 10C20 4.47715 15.5229 0 10 0ZM4.95972 4.22485L6.7395 4.78393C6.97512 4.86132 7.13205 5.08012 7.15942 5.30395L7.25952 6.28415L15.3186 7.1838C15.6647 7.25083 15.9078 7.56328 15.8594 7.88448L15.3589 10.7043C15.2952 10.9992 15.0509 11.2014 14.7791 11.2048H7.61963L7.47925 12.0043H14.2786C14.6341 12.0169 14.8945 12.2876 14.8987 12.6037C14.8839 12.9643 14.5933 13.2004 14.2786 13.2043H6.75903C6.37977 13.1729 6.10133 12.8724 6.15967 12.5048L6.47948 10.7446L5.979 5.82397L4.5996 5.38453C4.4396 5.3312 4.3195 5.23088 4.2395 5.08422C4.08813 4.76702 4.22952 4.41582 4.49952 4.2639C4.65362 4.1838 4.80412 4.17382 4.95972 4.22485ZM7.66968 13.5498C8.18745 13.5498 8.60718 13.9695 8.60718 14.4873C8.60718 15.0051 8.18745 15.4248 7.66968 15.4248C7.15195 15.4248 6.73218 15.0051 6.73218 14.4873C6.73218 13.9695 7.15192 13.5498 7.66968 13.5498ZM13.1726 13.5498C13.6904 13.5498 14.1101 13.9695 14.1101 14.4873C14.1101 15.0051 13.6904 15.4248 13.1726 15.4248C12.6549 15.4248 12.2351 15.0051 12.2351 14.4873C12.2351 13.9695 12.6549 13.5498 13.1726 13.5498Z" fill="white"/>
</svg>
